# File created by Blade
# Date/Time:  Thu Jan 22 16:04:59 2015
# Frame Rate: 120.000 fps
#------------------------------------------------------
:FULLY-SPECIFIED
:DEGREES
2958
root 3.498919 36.951090 5.262943 -1.542292 -4.985957 1.669810
RightUpLeg 8.678276 -5.127487 -9.157417
RightLeg -5.110462 -0.000000 0.000000
RightFoot -8.812573 -10.432733 20.397336
RightToeBase 11.739310 -0.000000 -0.000000
LeftUpLeg 7.440611 0.575643 7.231169
LeftLeg -2.243577 -0.000000 0.000000
LeftFoot -5.678264 5.630332 -22.571825
LeftToeBase 7.612734 -0.000000 -0.000000
Spine 4.374202 -4.521457 -3.203952
RightShoulder -0.896541 -5.599719 -27.410007
RightArm 6.081242 32.520306 28.006979
RightForeArm 1.757852 -0.000000 12.687312
RightHand 2.077143 -0.000000 6.681001
RightHandThumb1 -24.326973 -0.000000 -32.862282
LeftShoulder -23.355523 28.855616 17.309273
LeftArm 38.275379 -50.931493 -46.084471
LeftForeArm 36.500003 0.000000 1.547444
LeftHand -18.048634 -0.000000 -6.012679
LeftHandThumb1 -26.253704 0.000000 33.147579
Head -5.940623 13.835605 3.276713
2959
root 3.500782 36.950407 5.263152 -1.543954 -4.969104 1.668223
RightUpLeg 8.687752 -5.123886 -9.159115
RightLeg -5.116532 -0.000000 0.000000
RightFoot -8.817815 -10.444102 20.407534
RightToeBase 11.748856 -0.000000 -0.000000
LeftUpLeg 7.449532 0.576716 7.230283
LeftLeg -2.264563 -0.000000 0.000000
LeftFoot -5.659668 5.624626 -22.535767
LeftToeBase 7.560640 -0.000000 -0.000000
Spine 4.398887 -4.518903 -3.210225
RightShoulder -0.928525 -5.621870 -27.421996
RightArm 6.136581 32.499359 28.018611
RightForeArm 1.771552 -0.000000 12.732638
RightHand 2.030707 -0.000000 6.618501
RightHandThumb1 -24.326973 -0.000000 -32.862282
LeftShoulder -23.391626 28.870634 17.334565
LeftArm 38.382392 -50.973680 -46.205389
LeftForeArm 36.551031 -0.000000 1.597096
LeftHand -18.032510 -0.000000 -6.058681
LeftHandThumb1 -26.253704 0.000000 33.147579
Head -5.961632 13.872111 3.263375
2960
root 3.502929 36.949919 5.263848 -1.548490 -4.950244 1.677240
RightUpLeg 8.700961 -5.120775 -9.170727
RightLeg -5.122906 -0.000000 0.000000
RightFoot -8.833485 -10.464675 20.407052
RightToeBase 11.768073 -0.000000 -0.000000
LeftUpLeg 7.460312 0.571500 7.219174
LeftLeg -2.285128 -0.000000 0.000000
LeftFoot -5.651187 5.618194 -22.539279
LeftToeBase 7.584400 -0.000000 -0.000000
Spine 4.424735 -4.516987 -3.226032
RightShoulder -0.941189 -5.551078 -27.471851
RightArm 6.102827 32.430414 28.046253
RightForeArm 1.763953 0.000000 12.812265
RightHand 1.999263 -0.000000 6.537290
RightHandThumb1 -24.326973 -0.000000 -32.862282
LeftShoulder -23.421558 28.872516 17.353318
LeftArm 38.454190 -50.966848 -46.239146
LeftForeArm 36.507542 0.000000 1.586268
LeftHand -18.053596 -0.000000 -6.064340
LeftHandThumb1 -26.253704 0.000000 33.147579
Head -5.983906 13.908662 3.247195
2961
root 3.504711 36.948686 5.264582 -1.548429 -4.932026 1.682536
RightUpLeg 8.710330 -5.113816 -9.178679
RightLeg -5.128894 -0.000000 0.000000
RightFoot -8.843773 -10.476255 20.415613
RightToeBase 11.744984 -0.000000 -0.000000
LeftUpLeg 7.467942 0.563363 7.210932
LeftLeg -2.306083 -0.000000 0.000000
LeftFoot -5.638882 5.606158 -22.570206
LeftToeBase 7.550885 -0.000000 -0.000000
Spine 4.442183 -4.518086 -3.233535
RightShoulder -0.968458 -5.591669 -27.512703
RightArm 6.170382 32.460436 28.104080
RightForeArm 1.779739 -0.000000 12.850771
RightHand 2.071661 0.000000 6.419025
RightHandThumb1 -24.326973 -0.000000 -32.862282
LeftShoulder -23.464958 28.887784 17.373097
LeftArm 38.578993 -50.987572 -46.351821
LeftForeArm 36.538261 0.000000 1.599203
LeftHand -17.912163 -0.000000 -5.972651
LeftHandThumb1 -26.253704 0.000000 33.147579
Head -5.998630 13.959980 3.230649
2962
root 3.505951 36.947801 5.265936 -1.555463 -4.910964 1.687180
RightUpLeg 8.732094 -5.103734 -9.183464
RightLeg -5.143574 -0.000000 0.000000
RightFoot -8.862752 -10.504143 20.423121
RightToeBase 11.774187 -0.000000 -0.000000
LeftUpLeg 7.484074 0.567528 7.208936
LeftLeg -2.333257 -0.000000 0.000000
LeftFoot -5.625733 5.581501 -22.552889
LeftToeBase 7.595962 -0.000000 -0.000000
Spine 4.467989 -4.528852 -3.253558
RightShoulder -0.990079 -5.616004 -27.515647
RightArm 6.237565 32.453270 28.118422
RightForeArm 1.799140 -0.000000 12.878112
RightHand 2.073495 -0.000000 6.291338
RightHandThumb1 -24.326973 -0.000000 -32.862282
LeftShoulder -23.504238 28.902340 17.410761
LeftArm 38.668202 -50.997882 -46.443048
LeftForeArm 36.563808 -0.000000 1.628626
LeftHand -18.136457 0.000000 -5.851587
LeftHandThumb1 -26.253704 0.000000 33.147579
Head -6.006313 13.926644 3.218908
2963
root 3.509129 36.946636 5.267191 -1.557070 -4.890153 1.689128
RightUpLeg 8.739646 -5.137064 -9.194895
RightLeg -5.140843 -0.000000 0.000000
RightFoot -8.857516 -10.485088 20.422449
RightToeBase 11.728137 -0.000000 -0.000000
LeftUpLeg 7.497075 0.548174 7.200117
LeftLeg -2.363648 -0.000000 0.000000
LeftFoot -5.619412 5.597399 -22.529244
LeftToeBase 7.590203 -0.000000 -0.000000
Spine 4.477877 -4.541252 -3.254194
RightShoulder -1.002443 -5.689968 -27.552502
RightArm 6.324173 32.533344 28.181604
RightForeArm 1.734683 -0.000000 12.928548
RightHand 2.114970 -0.000000 6.193953
RightHandThumb1 -24.326973 -0.000000 -32.862282
LeftShoulder -23.519662 28.907033 17.443793
LeftArm 38.685684 -50.971219 -46.451784
LeftForeArm 36.522152 -0.000000 1.641888
LeftHand -18.170135 0.000000 -5.888216
LeftHandThumb1 -26.253704 0.000000 33.147579
Head -5.985249 14.054074 3.237303
